<svg width="72" height="72" viewBox="0 0 72 72" fill="none" xmlns="http://www.w3.org/2000/svg">
<rect x="18" y="48" width="36" height="9" rx="3" fill="url(#paint0_linear_2169_35493)"/>
<rect x="18" y="13" width="36" height="42" rx="3" fill="url(#paint1_linear_2169_35493)"/>
<rect x="26" y="11" width="20" height="5" rx="2" fill="url(#paint2_linear_2169_35493)"/>
<rect x="24" y="22" width="24" height="3" rx="1" fill="#A6B3F0"/>
<rect x="24" y="29" width="24" height="3" rx="1" fill="#A6B3F0"/>
<rect x="24" y="36" width="16" height="3" rx="1" fill="#A6B3F0"/>
<path d="M56.6449 35.3422C57.1175 34.8697 57.8836 34.8697 58.3561 35.3422L60.0673 37.0535C60.5399 37.5261 60.5398 38.2922 60.0673 38.7648L49.0483 49.7837L45.1981 50.2115L45.6259 46.3611L56.6449 35.3422Z" fill="#FF8585"/>
<defs>
<linearGradient id="paint0_linear_2169_35493" x1="36" y1="48" x2="36" y2="57" gradientUnits="userSpaceOnUse">
<stop stop-color="#8D9BE1"/>
<stop offset="1" stop-color="#C2CBF9"/>
</linearGradient>
<linearGradient id="paint1_linear_2169_35493" x1="36" y1="13" x2="36" y2="55" gradientUnits="userSpaceOnUse">
<stop stop-color="#C4CEFC"/>
<stop offset="1" stop-color="#D7DEFE"/>
</linearGradient>
<linearGradient id="paint2_linear_2169_35493" x1="36" y1="11" x2="36" y2="16" gradientUnits="userSpaceOnUse">
<stop offset="0.257214" stop-color="#5776CC"/>
<stop offset="1" stop-color="#3155B6"/>
</linearGradient>
</defs>
</svg>
