<svg width="72" height="72" viewBox="0 0 72 72" fill="none" xmlns="http://www.w3.org/2000/svg">
<circle cx="36" cy="36" r="36" fill="#0042A0"/>
<rect x="15" y="20" width="42" height="32" rx="2" fill="url(#paint0_linear_1151_9603)" fill-opacity="0.8"/>
<rect x="15.5" y="20.5" width="41" height="31" rx="1.5" stroke="white" stroke-opacity="0.2"/>
<path d="M15 22C15 20.8954 15.8954 20 17 20H55C56.1046 20 57 20.8954 57 22V26.5H15V22Z" fill="#EDEFFA"/>
<circle cx="19.25" cy="23.25" r="1.25" fill="#004DBC"/>
<circle cx="23.25" cy="23.25" r="1.25" fill="#004DBC"/>
<circle cx="27.25" cy="23.25" r="1.25" fill="#004DBC"/>
<rect x="21" y="32" width="30" height="3" rx="1" fill="#EDEFFA"/>
<rect x="21" y="38" width="21" height="3" rx="1" fill="#EDEFFA"/>
<path d="M52.5566 54.8803L51.53 42.6508C51.4688 41.9223 52.2837 41.4517 52.8841 41.869L62.961 48.8729C63.5976 49.3153 63.3744 50.3075 62.6097 50.4347L57.744 51.2441C57.5379 51.2784 57.3513 51.3862 57.2185 51.5475L54.0848 55.3569C53.5923 55.9556 52.6215 55.6529 52.5566 54.8803Z" fill="#EDEFFA"/>
<defs>
<linearGradient id="paint0_linear_1151_9603" x1="36" y1="20" x2="36" y2="52" gradientUnits="userSpaceOnUse">
<stop stop-color="white"/>
<stop offset="1" stop-color="white" stop-opacity="0.5"/>
</linearGradient>
</defs>
</svg>
