<svg width="72" height="72" viewBox="0 0 72 72" fill="none" xmlns="http://www.w3.org/2000/svg">
<path d="M40.9831 55.496C41.8664 55.2788 42.6266 54.8757 43.2282 54.2741C46.6648 50.8375 43.6256 42.2265 36.44 35.0409C29.2544 27.8553 20.6434 24.8161 17.2068 28.2527C16.6036 28.8558 16.2 29.6183 15.9832 30.5045C15.9818 30.5095 15.9805 30.5145 15.9793 30.5196L9.09538 58.5139C8.52112 60.8492 10.6316 62.9597 12.9669 62.3855L40.9614 55.5017C40.9687 55.4999 40.9759 55.498 40.9831 55.496Z" fill="url(#paint0_linear_1151_9601)"/>
<path d="M41.399 51.7402C39.1947 53.9445 32.5596 50.8833 26.5792 44.9029C20.5987 38.9225 17.5376 32.2874 19.7419 30.0831C21.9462 27.8787 28.5813 30.9399 34.5618 36.9203C40.5422 42.9008 43.6033 49.5358 41.399 51.7402Z" fill="url(#paint1_linear_1151_9601)"/>
<path fill-rule="evenodd" clip-rule="evenodd" d="M25.9506 15.0892C31.0097 22.2553 28.6436 30.6275 26.8617 33.9163L24.7515 32.773C26.3169 29.8839 28.3023 22.5816 23.99 16.4733L25.9506 15.0892Z" fill="#FF8585"/>
<path fill-rule="evenodd" clip-rule="evenodd" d="M45.2389 40.6922C49.44 38.9306 55.1198 39.1267 58.9038 40.4678L58.102 42.7299C54.7915 41.5566 49.7361 41.4089 46.167 42.9055L45.2389 40.6922Z" fill="#FF8585"/>
<path fill-rule="evenodd" clip-rule="evenodd" d="M40.2188 24.0058C38.961 26.9685 37.5726 29.5254 36.4883 30.9195L34.5938 29.4461C35.4894 28.2947 36.7818 25.9601 38.0097 23.0678C39.2293 20.1951 40.3434 16.8708 40.9232 13.7789L43.282 14.2211C42.6618 17.5292 41.485 21.0234 40.2188 24.0058Z" fill="#6E8BDB"/>
<path d="M57.1371 20.8008L60.2281 21.629L59.1928 25.4927L56.1019 24.6645L57.1371 20.8008Z" fill="#6E8BDB"/>
<path d="M66.7659 29.5996L68.3659 32.3709L64.9018 34.3709L63.3018 31.5996L66.7659 29.5996Z" fill="#FF8585"/>
<path d="M60.3669 49.5996L61.9669 52.3709L58.5028 54.3709L56.9028 51.5996L60.3669 49.5996Z" fill="#C8D1F9"/>
<path d="M31.5372 4L34.6281 4.82822L33.5928 8.6919L30.5019 7.86368L31.5372 4Z" fill="#C8D1F9"/>
<defs>
<linearGradient id="paint0_linear_1151_9601" x1="54.7033" y1="17.4607" x2="11.2287" y2="61.5932" gradientUnits="userSpaceOnUse">
<stop offset="0.519138" stop-color="#C4CEFC"/>
<stop offset="1" stop-color="#D8DFFE"/>
</linearGradient>
<linearGradient id="paint1_linear_1151_9601" x1="38.6829" y1="4" x2="38.6829" y2="62.4809" gradientUnits="userSpaceOnUse">
<stop offset="0.257214" stop-color="#5776CC"/>
<stop offset="1" stop-color="#3155B6"/>
</linearGradient>
</defs>
</svg>
