<svg width="500" height="400" viewBox="0 0 500 400" fill="none" xmlns="http://www.w3.org/2000/svg">
<g style="mix-blend-mode:multiply" opacity="0.3">
<path d="M252.51 333.99L66.1202 226.38C61.2302 223.56 61.8502 218.58 67.4902 215.33L251.13 109.3C256.77 106.04 265.39 105.69 270.27 108.51L456.66 216.12C461.55 218.94 460.93 223.92 455.29 227.17L271.65 333.19C266.01 336.45 257.39 336.81 252.51 333.98V333.99Z" fill="#3E64D6"/>
</g>
<g style="mix-blend-mode:multiply" opacity="0.3">
<path d="M167.52 323.751C167.28 326.431 165.22 329.201 161.44 331.381L117.16 356.951C109.8 361.201 98.55 361.671 92.17 357.981L44.3 330.351C41.41 328.681 40 326.441 40 324.091C40 321.741 41.45 319.231 44.28 317.121C44.83 316.701 45.43 316.301 46.09 315.921L90.37 290.361C97.74 286.101 108.98 285.641 115.36 289.321L163.19 316.931L163.24 316.961C165.9 318.501 167.31 320.521 167.52 322.681C167.55 323.031 167.55 323.391 167.52 323.761V323.751Z" fill="#3E64D6"/>
</g>
<g style="mix-blend-mode:multiply" opacity="0.3">
<path d="M400.02 288.83L373.42 273.48C369.88 271.43 370.32 267.83 374.42 265.46L399.02 251.26C403.11 248.9 409.36 248.64 412.9 250.68L439.5 266.03C443.04 268.08 442.6 271.68 438.5 274.05L413.9 288.25C409.81 290.61 403.56 290.87 400.02 288.83Z" fill="#3E64D6"/>
</g>
<path d="M459.96 182.87H428.45L270.28 91.5503C265.39 88.7303 256.78 89.0903 251.14 92.3403L94.3304 182.87H62.8404V204.29C62.7004 206.21 63.7604 208.06 66.1104 209.42L252.5 317.03C257.39 319.85 266 319.49 271.64 316.24L455.28 210.22C458.21 208.53 459.77 206.37 459.93 204.3H459.96V182.88V182.87Z" fill="#0497D6"/>
<path d="M252.51 295.611L66.1202 188.001C61.2302 185.181 61.8502 180.201 67.4902 176.951L251.13 70.9306C256.77 67.6706 265.39 67.3206 270.27 70.1406L456.66 177.751C461.55 180.571 460.93 185.551 455.29 188.801L271.65 294.821C266.01 298.081 257.39 298.431 252.51 295.611Z" fill="#4DBDED"/>
<path d="M167.52 284.291V297.001C167.53 297.171 167.52 297.331 167.52 297.501V297.791C167.32 300.501 165.28 303.311 161.45 305.521L117.17 331.091C109.81 335.341 98.56 335.811 92.18 332.121L44.31 304.481C41.25 302.711 39.85 300.301 40.04 297.781H40V285.691C40 283.311 41.45 280.831 44.28 278.721L65.77 278.691L90.37 264.491C97.74 260.241 108.98 259.771 115.36 263.461L141.55 278.581L163.19 278.551L163.24 278.581C165.9 280.121 167.31 282.141 167.52 284.301V284.291Z" fill="#004DBC"/>
<path d="M167.52 285.371C167.28 288.051 165.22 290.821 161.44 293.001L117.16 318.571C109.8 322.821 98.55 323.291 92.17 319.601L44.3 291.971C41.41 290.301 40 288.051 40 285.701C40 283.351 41.45 280.841 44.28 278.731C44.83 278.311 45.43 277.911 46.09 277.531L90.37 251.971C97.74 247.711 108.98 247.251 115.36 250.931L163.19 278.541L163.24 278.571C165.9 280.111 167.31 282.131 167.52 284.291C167.55 284.641 167.55 285.001 167.52 285.371Z" fill="white"/>
<path d="M441.879 241.911C441.879 241.821 441.879 241.721 441.879 241.631V231.381L427.449 231.401L412.899 223.001C409.359 220.951 403.109 221.211 399.019 223.581L385.349 231.471L371.029 231.491V242.071H371.049C370.949 243.461 371.719 244.811 373.419 245.791L400.019 261.141C403.559 263.191 409.809 262.931 413.899 260.561L438.499 246.361C440.629 245.131 441.759 243.571 441.869 242.061V241.901L441.879 241.911Z" fill="#004DBC"/>
<path d="M400.02 250.451L373.42 235.101C369.88 233.051 370.32 229.451 374.42 227.081L399.02 212.881C403.11 210.521 409.36 210.261 412.9 212.301L439.5 227.651C443.04 229.701 442.6 233.301 438.5 235.671L413.9 249.871C409.81 252.231 403.56 252.491 400.02 250.451Z" fill="white"/>
<path d="M400.78 181.43L389.02 182.65L308.93 136.41C305.18 134.24 298.57 134.52 294.24 137.02L177.12 204.64L160.14 206.4V217.12H160.15C160.13 218.52 160.95 219.86 162.67 220.85L251.99 272.42C255.74 274.59 262.35 274.31 266.68 271.81L397.19 196.46C399.45 195.15 400.65 193.49 400.76 191.89H400.78V181.43Z" fill="#004DBC"/>
<path d="M251.98 261.81L162.66 210.24C158.91 208.07 159.38 204.26 163.72 201.76L294.23 126.4C298.56 123.9 305.17 123.63 308.92 125.79L398.24 177.36C401.99 179.53 401.52 183.34 397.18 185.84L266.67 261.19C262.34 263.69 255.73 263.96 251.98 261.8V261.81Z" fill="white"/>
<path d="M284.97 159.84L280.51 157.27C276.76 155.1 277.23 151.29 281.56 148.79L283.91 147.44C288.24 144.94 294.85 144.67 298.6 146.83L303.06 149.4C306.81 151.57 306.34 155.38 302 157.88L299.65 159.23C295.32 161.73 288.71 162 284.96 159.84H284.97Z" fill="#CEDCF9"/>
<path d="M256.32 176.38L251.86 173.81C248.11 171.64 248.58 167.83 252.92 165.33L255.27 163.98C259.6 161.48 266.21 161.21 269.96 163.37L274.42 165.94C278.17 168.11 277.7 171.92 273.37 174.42L271.02 175.77C266.69 178.27 260.08 178.54 256.33 176.38H256.32Z" fill="#CEDCF9"/>
<path d="M227.67 192.93L223.21 190.36C219.46 188.19 219.93 184.38 224.26 181.88L226.61 180.53C230.94 178.03 237.55 177.76 241.3 179.92L245.76 182.49C249.51 184.66 249.04 188.47 244.71 190.97L242.36 192.32C238.03 194.82 231.42 195.09 227.67 192.93Z" fill="#CEDCF9"/>
<path d="M199.02 209.47L194.56 206.9C190.81 204.73 191.28 200.92 195.62 198.42L197.97 197.07C202.3 194.57 208.91 194.3 212.66 196.46L217.12 199.03C220.87 201.2 220.4 205.01 216.06 207.51L213.71 208.86C209.38 211.36 202.77 211.63 199.02 209.47Z" fill="#CEDCF9"/>
<path d="M348.841 190.621L308.361 167.251C306.561 166.211 306.791 164.391 308.861 163.191C310.931 161.991 314.101 161.861 315.891 162.901L356.371 186.271C358.171 187.311 357.941 189.131 355.871 190.331C353.801 191.531 350.631 191.661 348.841 190.621Z" fill="#CEDCF9"/>
<path d="M320.19 207.16L279.71 183.79C277.91 182.75 278.14 180.93 280.21 179.73C282.28 178.53 285.45 178.4 287.24 179.44L327.72 202.81C329.52 203.85 329.29 205.67 327.22 206.87C325.15 208.07 321.98 208.2 320.19 207.16Z" fill="#CEDCF9"/>
<path d="M291.54 223.71L251.06 200.34C249.26 199.3 249.49 197.48 251.56 196.28C253.63 195.08 256.8 194.95 258.59 195.99L299.07 219.36C300.87 220.4 300.64 222.22 298.57 223.42C296.5 224.62 293.33 224.75 291.54 223.71Z" fill="#CEDCF9"/>
<path d="M262.89 240.25L222.41 216.88C220.61 215.84 220.84 214.021 222.91 212.821C224.98 211.621 228.15 211.49 229.94 212.53L270.42 235.9C272.22 236.94 271.99 238.761 269.92 239.961C267.85 241.161 264.68 241.29 262.89 240.25Z" fill="#CEDCF9"/>
<path d="M229.79 189.13C229.16 188.77 228.78 188.27 228.78 187.72V183.73C228.78 182.63 230.33 181.74 232.23 181.74C234.14 181.74 235.69 182.63 235.68 183.73V185.72H248.82C250.73 185.72 252.27 186.61 252.27 187.71C252.27 188.81 250.72 189.7 248.82 189.7H232.23C231.28 189.7 230.41 189.48 229.79 189.12V189.13Z" fill="#6E92DB"/>
<path d="M258.81 172.37C258.19 172.01 257.8 171.51 257.8 170.96V166.97C257.8 165.87 259.35 164.98 261.25 164.98C263.16 164.98 264.71 165.87 264.7 166.97V168.96H277.84C279.75 168.96 281.29 169.85 281.29 170.95C281.29 172.05 279.74 172.94 277.84 172.94H261.25C260.3 172.94 259.43 172.72 258.81 172.36V172.37Z" fill="#6E92DB"/>
<path d="M287.09 156.05C286.44 155.68 286.08 155.17 286.08 154.64V150.65C286.08 149.55 287.63 148.66 289.53 148.66C291.44 148.66 292.98 149.55 292.98 150.65V152.64H306.12C308.03 152.64 309.57 153.53 309.57 154.63C309.57 155.73 308.02 156.62 306.12 156.62H289.53C288.61 156.62 287.74 156.41 287.09 156.04V156.05Z" fill="#6E92DB"/>
<path d="M201.51 205.46C200.89 205.1 200.5 204.6 200.5 204.05V200.06C200.5 198.96 202.05 198.07 203.95 198.07C205.86 198.07 207.41 198.96 207.4 200.06V202.05H220.54C222.45 202.05 223.99 202.94 223.99 204.04C223.99 205.14 222.44 206.03 220.54 206.03H203.95C203 206.03 202.13 205.81 201.51 205.45V205.46Z" fill="#6E92DB"/>
<path d="M299.14 98.3405C298.55 96.2505 298.11 93.7205 296.23 92.6305C293.04 90.7905 287.98 92.9205 284.03 92.0305C280.33 91.1905 276.83 87.0305 272.91 87.0305C268.99 87.0305 265.49 91.2005 261.79 92.0305C257.84 92.9205 252.78 90.7905 249.59 92.6305C247.71 93.7205 247.27 96.2405 246.68 98.3405H239.37V107.191C239.37 109.801 243.71 111.231 245.64 113.641C247.16 115.551 246.85 120.171 249.58 121.741C252.77 123.581 257.83 121.451 261.78 122.341C265.48 123.181 268.98 127.341 272.9 127.341C276.82 127.341 280.32 123.171 284.02 122.341C287.97 121.451 293.03 123.581 296.22 121.741C298.95 120.171 298.64 115.551 300.16 113.641C302.09 111.221 306.43 109.801 306.43 107.191V98.3405H299.12H299.14Z" fill="#004DBC"/>
<path d="M245.75 123.44C245.18 120.69 244.6 117.94 244.03 115.19L229.46 114.04C239.05 108.51 248.63 102.97 258.22 97.4404L274.52 106.85L245.76 123.45L245.75 123.44Z" fill="#FFC97C"/>
<path d="M296.24 112.89C293.05 114.73 287.99 112.6 284.04 113.49C280.34 114.32 276.84 118.49 272.92 118.49C269 118.49 265.5 114.32 261.8 113.49C257.85 112.6 252.79 114.73 249.6 112.89C246.87 111.32 247.18 106.7 245.66 104.79C243.73 102.37 239.39 100.95 239.39 98.3404C239.39 95.7304 243.73 94.3004 245.66 91.8904C247.18 89.9804 246.87 85.3604 249.6 83.7904C252.79 81.9504 257.85 84.0804 261.8 83.1904C265.5 82.3604 269 78.1904 272.92 78.1904C276.84 78.1904 280.34 82.3604 284.04 83.1904C287.99 84.0804 293.05 81.9504 296.24 83.7904C298.97 85.3604 298.66 89.9804 300.18 91.8904C302.11 94.3104 306.45 95.7304 306.45 98.3404C306.45 100.95 302.11 102.38 300.18 104.79C298.66 106.7 298.97 111.32 296.24 112.89Z" fill="#3E64D6"/>
<path d="M272.919 111.43C285.445 111.43 295.599 105.569 295.599 98.34C295.599 91.1106 285.445 85.25 272.919 85.25C260.393 85.25 250.239 91.1106 250.239 98.34C250.239 105.569 260.393 111.43 272.919 111.43Z" fill="#004DBC"/>
<path d="M229.45 114.031V122.871L244.02 124.031V115.181L229.45 114.031Z" fill="#FF926C"/>
<path d="M244.021 115.18V124.03L245.751 132.28V123.44L244.021 115.18Z" fill="#FF9672"/>
<path d="M269.09 91.4907L263.37 94.7907L261.67 93.8107L267.39 90.5107L269.09 91.4907Z" fill="white"/>
<path d="M267.69 97.281L268.47 95.951L267.57 95.431L266.03 96.321L264.33 95.341L270.05 92.041L272.72 93.581C274.25 94.461 274.4 95.401 273.1 96.151C272.25 96.641 271.29 96.801 270.32 96.641L269.61 98.391L267.69 97.281ZM268.88 94.681L269.85 95.241C270.36 95.531 270.93 95.541 271.44 95.241C271.94 94.951 271.92 94.621 271.42 94.331L270.45 93.771L268.88 94.671V94.681Z" fill="white"/>
<path d="M275.02 100.451L272.71 99.1208L271.46 99.4508L269.71 98.4408L277.86 96.5508L279.61 97.5608L276.25 102.221L274.44 101.181L275.02 100.461V100.451ZM275.81 99.4808L276.99 98.0108L274.42 98.6808L275.81 99.4808Z" fill="white"/>
<path d="M283.33 101.16C283.04 101 282.76 100.94 282.55 101.07C281.71 101.56 285.19 102.99 283.13 104.18C281.92 104.88 280.26 104.59 278.98 103.85C278.01 103.29 277.29 102.48 277.14 101.74L279.06 101.36C279.15 101.99 279.73 102.75 280.32 103.09C280.68 103.3 281.03 103.36 281.29 103.21C282.15 102.71 278.62 101.3 280.64 100.14C281.74 99.5003 283.38 99.6403 284.81 100.46C285.68 100.96 286.32 101.63 286.54 102.22L284.61 102.61C284.36 102.08 283.83 101.42 283.35 101.15L283.33 101.16Z" fill="white"/>
<path d="M262.58 113.721V122.561L245.75 132.281V123.441L262.58 113.721Z" fill="#FF926C"/>
<path d="M433.331 187.941V232.641C433.331 232.641 433.331 232.701 433.331 232.731V232.781C433.301 233.261 432.941 233.751 432.261 234.151L424.451 238.651C423.771 239.041 422.921 239.251 422.091 239.271C421.321 239.291 420.581 239.141 420.041 238.831L411.611 233.961C411.071 233.651 410.821 233.221 410.861 232.781V187.981H415.401L419.741 185.481C421.041 184.731 423.021 184.651 424.141 185.291L428.751 187.951H433.331V187.941Z" fill="#FF926C"/>
<path d="M433.33 187.961V232.631C433.33 232.631 433.33 232.691 433.33 232.721V232.771C433.3 233.251 432.94 233.741 432.26 234.141L424.45 238.641C423.77 239.031 422.92 239.241 422.09 239.261V187.961H433.32H433.33Z" fill="#FFC97C"/>
<path d="M420.05 194.021L411.61 189.151C410.49 188.501 410.63 187.361 411.93 186.611L419.73 182.101C421.03 181.351 423.01 181.271 424.13 181.921L432.57 186.791C433.69 187.441 433.55 188.581 432.25 189.331L424.45 193.841C423.15 194.591 421.17 194.671 420.05 194.021Z" fill="#F9D29B"/>
<path d="M421.96 190.911C421.85 190.911 421.77 190.901 421.73 190.891L416.66 187.961L421.51 185.161C421.61 185.101 421.91 185.011 422.23 185.011C422.34 185.011 422.42 185.011 422.47 185.031L427.54 187.961L422.69 190.761C422.61 190.811 422.32 190.911 421.97 190.911H421.96Z" fill="#FF926C"/>
<path d="M403.88 205.451V232.641C403.88 232.641 403.88 232.701 403.88 232.731V232.781C403.85 233.261 403.49 233.751 402.81 234.151L395 238.651C394.33 239.041 393.47 239.251 392.64 239.271C391.87 239.291 391.13 239.141 390.59 238.831L382.16 233.961C381.62 233.651 381.37 233.221 381.41 232.781V205.491H385.95L390.29 202.981C391.59 202.231 393.57 202.151 394.69 202.801L398.41 204.951L399.3 205.461H403.87L403.88 205.451Z" fill="#FF926C"/>
<path d="M403.881 205.451V232.641C403.881 232.641 403.881 232.701 403.881 232.731V232.781C403.851 233.261 403.491 233.751 402.811 234.151L395.001 238.651C394.331 239.041 393.471 239.251 392.641 239.271V205.481L398.411 204.951L399.301 205.461H403.871L403.881 205.451Z" fill="#FFC97C"/>
<path d="M390.611 211.521L382.171 206.651C381.051 206.001 381.191 204.861 382.491 204.111L390.291 199.601C391.591 198.851 393.571 198.771 394.691 199.421L403.131 204.291C404.251 204.941 404.111 206.081 402.811 206.831L395.011 211.341C393.711 212.091 391.731 212.171 390.611 211.521Z" fill="#F9D29B"/>
<path d="M392.52 208.421C392.41 208.421 392.33 208.42 392.28 208.4L387.21 205.471L392.06 202.671C392.17 202.611 392.46 202.521 392.78 202.521C392.89 202.521 392.97 202.52 393.02 202.54L398.09 205.471L393.24 208.271C393.14 208.331 392.84 208.421 392.52 208.421Z" fill="#FF926C"/>
<path d="M210.25 124.131L219.14 119.001L227.86 124.041L232.22 135.271L227.86 141.471L218.97 146.601L223.33 140.401L218.97 129.171L210.25 124.131Z" fill="#F9D29B"/>
<path d="M232.22 135.271L223.33 140.401L218.97 129.171L227.86 124.041L232.22 135.271Z" fill="#FFC97C"/>
<path d="M227.86 141.471L218.97 146.601L223.33 140.401L232.22 135.271L227.86 141.471Z" fill="#FF926C"/>
<path d="M148.479 159.801L210.249 124.131L218.969 129.171L223.329 140.401L218.969 146.601L157.199 182.261L161.559 176.071L157.199 164.841L148.479 159.801Z" fill="#6E92DB"/>
<path d="M161.56 176.071L223.33 140.401L218.97 129.171L157.2 164.841L161.56 176.071Z" fill="#3E64D6"/>
<path d="M157.2 182.261L218.97 146.601L223.33 140.401L161.56 176.071L157.2 182.261Z" fill="#004DBC"/>
<path d="M136.939 175.881L148.479 159.801L157.199 164.841L161.559 176.071L157.199 182.261L139.679 182.951L141.059 181.011L139.679 177.471L136.939 175.881Z" fill="white"/>
<path d="M141.06 181.011L161.56 176.071L157.2 164.841L139.68 177.471L141.06 181.011Z" fill="white"/>
<path d="M139.68 182.951L157.2 182.261L161.56 176.071L141.06 181.011L139.68 182.951Z" fill="#ACCDFA"/>
<path d="M131.22 182.061L130.76 182.711L131.22 183.901L132.15 184.431L139.68 182.951L141.06 181.011L139.68 177.471L136.94 175.881L131.22 182.061Z" fill="#004DBC"/>
<path d="M120.53 197.701L131.27 184.461L110.1 177.871C107.12 182.081 104.14 186.281 101.16 190.491C107.61 192.891 114.07 195.291 120.52 197.701H120.53Z" fill="white"/>
<path d="M121.32 197.251L122.17 195.721L123.8 192.791C123.8 192.791 123.89 192.741 123.94 192.721C124.03 192.681 124.11 192.631 124.2 192.581C125.08 192.091 125.87 191.451 126.69 190.761L127.87 189.621C128.06 189.731 128.25 189.851 128.47 189.961C129.12 190.471 128.76 190.991 128.63 191.471C128.6 191.641 128.69 191.791 128.78 191.971C128.86 192.131 128.93 192.311 128.94 192.551C128.94 192.761 128.82 193.001 128.73 193.221C128.68 193.341 128.64 193.451 128.63 193.561C128.63 193.641 128.65 193.711 128.69 193.791C128.73 193.891 128.77 194.011 128.75 194.241C128.75 194.281 128.73 194.341 128.7 194.411C128.6 194.641 128.39 194.971 128.41 195.121C128.41 195.171 128.41 195.231 128.42 195.281C128.44 195.721 128.31 196.051 128.02 196.361C126.8 197.881 124.92 199.151 123.18 200.581L121.61 198.731L120.96 197.961L121.34 197.271L121.32 197.251Z" fill="#FFB799"/>
<path d="M122.31 199.041L121.78 198.321L121.32 197.701C121.32 197.551 121.32 197.401 121.32 197.251C121.32 196.061 121.21 194.831 120.99 193.641C120.95 193.451 120.88 192.981 121 192.551C121.26 191.631 121.09 190.921 120.88 190.171C120.75 189.861 120.86 189.251 121.42 189.131C121.47 189.121 121.52 189.121 121.56 189.121C122.03 189.131 122.31 189.731 122.5 190.461C122.57 190.721 122.62 190.991 122.66 191.261C122.97 192.001 123.54 192.381 124.19 192.581C124.37 192.641 124.57 192.681 124.76 192.711C124.98 192.751 125.2 192.771 125.41 192.791L123.4 196.831L122.3 199.031L122.31 199.041Z" fill="#FFB799"/>
<path d="M128.22 196.051L130 191.871L130.45 188.491C130.45 187.861 130.04 187.771 129.5 187.831C128.76 188.231 128.23 188.831 127.86 189.611L125.99 192.321L127.08 196.171L128.22 196.041V196.051Z" fill="#FFB799"/>
<path d="M112.7 295.27C108.95 297.51 105.78 299.14 102.87 300.13C101.5 300.55 100.4 300.65 99.5703 300.53C98.3903 300.36 97.7203 299.7 97.5403 298.77C97.2003 296.42 97.5403 294.58 98.0903 292.22V287.25L101.53 286.85L105.77 286.34L105.65 289.56L105.61 290.46L108.65 290.66L110.21 290.5C111.22 290.39 112.25 290.75 112.88 291.55C113.97 292.92 113.5 294.73 112.71 295.27H112.7Z" fill="#004DBC"/>
<path d="M96.63 286.16C92.88 288.4 89.71 290.03 86.8 291.02C85.43 291.44 84.33 291.54 83.5 291.42C82.32 291.25 81.65 290.59 81.47 289.66C81.13 287.31 81.47 285.47 82.02 283.11V278.14L85.46 277.74L89.7 277.23L89.58 280.45L89.54 281.35L92.58 281.55L94.14 281.39C95.15 281.28 96.18 281.64 96.81 282.44C97.9 283.81 97.43 285.62 96.64 286.16H96.63Z" fill="#004DBC"/>
<path d="M82.4803 213.761L83.7003 244.291C82.2703 255.221 79.8603 265.251 81.5503 282.251C81.9603 285.371 90.9503 284.561 91.9203 280.961C92.7003 271.211 95.3203 258.781 95.5603 244.731C95.1403 238.251 96.2303 225.191 95.2103 220.461C95.2103 220.461 88.1203 220.281 82.4803 213.761Z" fill="#3E64D6"/>
<path d="M91.1506 232.84L96.4606 256.16C95.0306 267.09 95.7106 274.51 97.4006 291.5C97.8106 294.62 107.791 293.91 107.791 290.02C107.891 280.67 108.911 267.82 109.151 253.77C108.731 247.29 107.061 222.81 106.041 218.08C105.091 210 82.3006 205.69 82.1106 213.66C81.6506 223.46 83.5406 228.62 91.1506 232.83V232.84Z" fill="#3E64D6"/>
<path d="M80.96 216.491C81.07 212.611 81.88 186.301 85.07 177.061C86.48 172.981 88.37 172.161 89.01 171.941C91.56 171.061 94.26 172.851 95.1 173.451C99.55 175.571 103.11 176.431 106.08 178.001C106.44 178.201 106.8 178.391 107.15 178.621C107.66 180.191 107.95 183.981 108.2 187.721C108.27 188.941 108.34 190.151 108.41 191.271C108.45 191.831 108.49 192.381 108.52 192.901C108.52 193.061 108.54 193.181 108.54 193.221C108.54 193.361 108.64 205.291 108.78 223.831C105.8 224.391 99.97 225.081 93.12 223.061C87.26 221.331 83.19 218.381 80.96 216.491Z" fill="#CEDCF9"/>
<path d="M89.9599 172.261C87.5699 174.421 87.5499 176.591 91.8899 178.791C95.8399 179.891 99.0599 179.591 102.43 176.421L99.5299 174.991L89.9599 172.271V172.261Z" fill="#CEDCF9"/>
<path d="M89.9591 169.601V173.351C90.0591 174.741 91.8691 176.261 94.2491 176.481C96.5691 176.671 98.6191 175.771 99.5191 174.971L99.5391 173.241L100.209 172.971C101.629 172.281 101.999 171.611 102.199 167.901C102.329 165.601 102.299 164.351 102.519 163.101C102.649 162.351 102.549 161.721 102.519 161.061C102.389 158.481 100.029 154.201 95.0691 154.691C90.2791 155.161 87.5791 157.941 87.5791 162.381C87.6191 165.281 88.2091 167.761 89.9391 169.591L89.9591 169.601Z" fill="#FFB799"/>
<path d="M89.9595 171.271C91.9695 172.621 94.0595 173.121 96.2495 172.551C98.0295 171.831 98.0995 168.391 98.2295 165.031L99.2195 164.511C99.1495 164.371 98.5095 163.011 99.2295 161.661C99.8195 160.561 101.07 159.921 102.39 160.061C102.08 157.691 101.1 156.471 100.48 155.881C97.0695 152.621 88.8295 153.321 86.0595 158.631C83.9895 162.591 85.4395 168.221 89.9595 171.271Z" fill="#004DBC"/>
<path d="M98.3198 164.441C97.8898 162.741 95.7098 163.791 96.5098 167.051C96.8398 168.341 97.4498 169.291 98.3498 168.091C98.3498 167.871 98.3498 164.561 98.3198 164.441Z" fill="#FFB799"/>
<path d="M123.63 203.581C122.8 204.371 120.26 206.601 116.34 206.991C110.6 207.561 106.7 203.711 106.17 203.171C103.6 198.701 101.86 194.801 100.68 191.851C99.6703 189.321 98.9103 187.051 99.3503 184.291C99.5403 183.121 99.8703 181.231 101.47 179.821C103.6 177.951 106.39 178.301 106.92 178.371C108.82 183.661 110.72 188.951 112.62 194.241C115.39 195.471 118.17 196.691 120.94 197.921C121.35 198.311 121.8 198.811 122.22 199.451C123.26 201.041 123.55 202.621 123.63 203.571V203.581Z" fill="#CEDCF9"/>
<path d="M439.15 100.6L333.12 39.0305C330.6 37.5805 328.33 37.7205 326.74 39.1105L316.27 44.8505L324.44 59.2805V85.2705C324.44 91.6405 328.35 99.1105 333.13 101.87L425.06 155.301L433.51 170.221L444.31 164.151C446.46 163.261 447.87 160.691 447.87 156.871V117.211C447.87 110.84 443.96 103.361 439.18 100.611L439.15 100.6Z" fill="#004DBC"/>
<path d="M436.75 123.4V163.05C436.75 169.43 432.84 172.39 428.06 169.63L403.65 155.45V164.6L395.96 150.99L322.03 108.06C317.25 105.29 313.34 97.8302 313.34 91.4502V51.8002C313.34 45.4302 317.25 42.4702 322.03 45.2302L428.06 106.8C432.84 109.56 436.75 117.03 436.75 123.41V123.4Z" fill="#3E64D6"/>
<path d="M403.649 155.45V164.6C406.279 163.08 408.919 161.56 411.549 160.04C408.919 158.51 406.279 156.98 403.649 155.45Z" fill="#004DBC"/>
<path d="M403.471 109.021L406.841 118.851C406.961 119.201 407.191 119.521 407.451 119.721L414.991 125.341C415.661 125.841 415.921 126.941 415.441 127.201L409.991 130.191C409.801 130.301 409.711 130.561 409.761 130.891L411.051 140.301C411.161 141.131 410.471 141.321 409.871 140.611L403.131 132.631C402.891 132.351 402.611 132.191 402.371 132.191L395.631 132.391C395.031 132.411 394.331 131.421 394.451 130.721L395.741 122.801C395.791 122.521 395.701 122.161 395.511 121.831L390.061 112.541C389.581 111.721 389.841 110.921 390.511 111.201L398.051 114.291C398.321 114.401 398.541 114.341 398.661 114.131L402.031 108.191C402.331 107.661 403.191 108.161 403.491 109.031L403.471 109.021Z" fill="#FFC97C"/>
<path d="M373.23 92.3109L376.6 102.141C376.72 102.491 376.95 102.811 377.21 103.011L384.75 108.631C385.42 109.131 385.68 110.231 385.2 110.491L379.75 113.481C379.56 113.591 379.47 113.851 379.52 114.181L380.81 123.591C380.92 124.421 380.23 124.611 379.63 123.901L372.89 115.921C372.65 115.641 372.37 115.481 372.13 115.481L365.39 115.681C364.79 115.701 364.09 114.711 364.21 114.011L365.5 106.091C365.55 105.811 365.46 105.451 365.27 105.121L359.82 95.8309C359.34 95.0109 359.6 94.2109 360.27 94.4909L367.81 97.5809C368.08 97.6909 368.3 97.6309 368.42 97.4209L371.79 91.4809C372.09 90.9509 372.95 91.4509 373.25 92.3209L373.23 92.3109Z" fill="#FFC97C"/>
<path d="M342.99 75.6109L346.36 85.4409C346.48 85.7909 346.71 86.1109 346.97 86.3109L354.51 91.9309C355.18 92.4309 355.44 93.5309 354.96 93.7909L349.51 96.7809C349.32 96.8909 349.23 97.1509 349.28 97.4809L350.57 106.891C350.68 107.721 349.99 107.911 349.39 107.201L342.65 99.2209C342.41 98.9409 342.13 98.7809 341.89 98.7809L335.15 98.9809C334.55 99.0009 333.85 98.0109 333.97 97.3109L335.26 89.3909C335.31 89.1109 335.22 88.7509 335.03 88.4209L329.58 79.1309C329.1 78.3109 329.36 77.5109 330.03 77.7909L337.57 80.8809C337.84 80.9909 338.06 80.9309 338.18 80.7209L341.55 74.7809C341.85 74.2509 342.71 74.7509 343.01 75.6209L342.99 75.6109Z" fill="#FFC97C"/>
</svg>
