<svg width="420" height="323" viewBox="0 0 420 323" fill="none" xmlns="http://www.w3.org/2000/svg">
<g style="mix-blend-mode:multiply" opacity="0.3">
<path d="M212.51 295.99L26.12 188.38C21.23 185.56 21.85 180.58 27.49 177.33L211.13 71.3005C216.77 68.0405 225.39 67.6905 230.27 70.5105L416.66 178.12C421.55 180.94 420.93 185.92 415.29 189.17L231.65 295.19C226.01 298.45 217.39 298.81 212.51 295.98V295.99Z" fill="#3E64D6"/>
</g>
<g style="mix-blend-mode:multiply" opacity="0.3">
<path d="M127.52 285.75C127.28 288.43 125.22 291.2 121.44 293.38L77.16 318.95C69.8 323.2 58.55 323.67 52.17 319.98L4.3 292.35C1.41 290.68 0 288.44 0 286.09C0 283.74 1.45 281.23 4.28 279.12C4.83 278.7 5.43 278.3 6.09 277.92L50.37 252.36C57.74 248.1 68.98 247.64 75.36 251.32L123.19 278.93L123.24 278.96C125.9 280.5 127.31 282.52 127.52 284.68C127.55 285.03 127.55 285.39 127.52 285.76V285.75Z" fill="#3E64D6"/>
</g>
<g style="mix-blend-mode:multiply" opacity="0.3">
<path d="M360.02 250.83L333.42 235.48C329.88 233.43 330.32 229.83 334.42 227.46L359.02 213.26C363.11 210.9 369.36 210.64 372.9 212.68L399.5 228.03C403.04 230.08 402.6 233.68 398.5 236.05L373.9 250.25C369.81 252.61 363.56 252.87 360.02 250.83Z" fill="#3E64D6"/>
</g>
<path d="M419.96 144.87H388.45L230.28 53.5501C225.39 50.7301 216.78 51.0901 211.14 54.3401L54.33 144.87H22.84V166.29C22.7 168.21 23.76 170.06 26.11 171.42L212.5 279.03C217.39 281.85 226 281.49 231.64 278.24L415.28 172.22C418.21 170.53 419.77 168.37 419.93 166.3H419.96V144.88V144.87Z" fill="#0497D6"/>
<path d="M212.51 257.611L26.12 150.001C21.23 147.181 21.85 142.201 27.49 138.951L211.13 32.9313C216.77 29.6713 225.39 29.3213 230.27 32.1413L416.66 139.751C421.55 142.571 420.93 147.551 415.29 150.801L231.65 256.821C226.01 260.081 217.39 260.431 212.51 257.611Z" fill="#4DBDED"/>
<path d="M127.52 246.292V259.002C127.53 259.172 127.52 259.332 127.52 259.502V259.792C127.32 262.502 125.28 265.312 121.45 267.522L77.17 293.092C69.81 297.342 58.56 297.812 52.18 294.122L4.31 266.482C1.25 264.712 -0.15 262.302 0.04 259.782H0V247.692C0 245.312 1.45 242.832 4.28 240.722L25.77 240.692L50.37 226.492C57.74 222.242 68.98 221.772 75.36 225.462L101.55 240.582L123.19 240.552L123.24 240.582C125.9 242.122 127.31 244.142 127.52 246.302V246.292Z" fill="#004DBC"/>
<path d="M127.52 247.371C127.28 250.051 125.22 252.821 121.44 255.001L77.16 280.571C69.8 284.821 58.55 285.291 52.17 281.601L4.3 253.971C1.41 252.301 0 250.051 0 247.701C0 245.351 1.45 242.841 4.28 240.731C4.83 240.311 5.43 239.911 6.09 239.531L50.37 213.971C57.74 209.711 68.98 209.251 75.36 212.931L123.19 240.541L123.24 240.571C125.9 242.111 127.31 244.131 127.52 246.291C127.55 246.641 127.55 247.001 127.52 247.371Z" fill="white"/>
<path d="M401.88 203.912C401.88 203.822 401.88 203.722 401.88 203.632V193.382L387.45 193.402L372.9 185.002C369.36 182.952 363.11 183.212 359.02 185.582L345.35 193.472L331.03 193.492V204.072H331.05C330.95 205.462 331.72 206.812 333.42 207.792L360.02 223.142C363.56 225.192 369.81 224.932 373.9 222.562L398.5 208.362C400.63 207.132 401.76 205.572 401.87 204.062V203.902L401.88 203.912Z" fill="#004DBC"/>
<path d="M360.02 212.451L333.42 197.101C329.88 195.051 330.32 191.451 334.42 189.081L359.02 174.881C363.11 172.521 369.36 172.261 372.9 174.301L399.5 189.651C403.04 191.701 402.6 195.301 398.5 197.671L373.9 211.871C369.81 214.231 363.56 214.491 360.02 212.451Z" fill="white"/>
<path d="M360.78 143.431L349.02 144.651L268.93 98.4113C265.18 96.2413 258.57 96.5213 254.24 99.0213L137.12 166.641L120.14 168.401V179.121H120.15C120.13 180.521 120.95 181.861 122.67 182.851L211.99 234.421C215.74 236.591 222.35 236.311 226.68 233.811L357.19 158.461C359.45 157.151 360.65 155.491 360.76 153.891H360.78V143.431Z" fill="#004DBC"/>
<path d="M211.98 223.81L122.66 172.24C118.91 170.07 119.38 166.26 123.72 163.76L254.23 88.4001C258.56 85.9001 265.17 85.6301 268.92 87.7901L358.24 139.36C361.99 141.53 361.52 145.34 357.18 147.84L226.67 223.19C222.34 225.69 215.73 225.96 211.98 223.8V223.81Z" fill="white"/>
<path d="M244.97 121.839L240.51 119.269C236.76 117.099 237.23 113.289 241.56 110.789L243.91 109.439C248.24 106.939 254.85 106.669 258.6 108.829L263.06 111.399C266.81 113.569 266.34 117.379 262 119.879L259.65 121.229C255.32 123.729 248.71 123.999 244.96 121.839H244.97Z" fill="#CEDCF9"/>
<path d="M216.32 138.378L211.86 135.808C208.11 133.638 208.58 129.828 212.92 127.328L215.27 125.978C219.6 123.478 226.21 123.208 229.96 125.368L234.42 127.938C238.17 130.108 237.7 133.918 233.37 136.418L231.02 137.768C226.69 140.268 220.08 140.538 216.33 138.378H216.32Z" fill="#CEDCF9"/>
<path d="M187.67 154.929L183.21 152.359C179.46 150.189 179.93 146.379 184.26 143.879L186.61 142.529C190.94 140.029 197.55 139.759 201.3 141.919L205.76 144.489C209.51 146.659 209.04 150.469 204.71 152.969L202.36 154.319C198.03 156.819 191.42 157.089 187.67 154.929Z" fill="#CEDCF9"/>
<path d="M159.02 171.47L154.56 168.9C150.81 166.73 151.28 162.92 155.62 160.42L157.97 159.07C162.3 156.57 168.91 156.3 172.66 158.46L177.12 161.03C180.87 163.2 180.4 167.01 176.06 169.51L173.71 170.86C169.38 173.36 162.77 173.63 159.02 171.47Z" fill="#CEDCF9"/>
<path d="M308.84 152.62L268.36 129.25C266.56 128.21 266.79 126.39 268.86 125.19C270.93 123.99 274.1 123.86 275.89 124.9L316.37 148.27C318.17 149.31 317.94 151.13 315.87 152.33C313.8 153.53 310.63 153.66 308.84 152.62Z" fill="#CEDCF9"/>
<path d="M280.19 169.159L239.71 145.789C237.91 144.749 238.14 142.929 240.21 141.729C242.28 140.529 245.45 140.399 247.24 141.439L287.72 164.809C289.52 165.849 289.29 167.669 287.22 168.869C285.15 170.069 281.98 170.199 280.19 169.159Z" fill="#CEDCF9"/>
<path d="M251.54 185.709L211.06 162.339C209.26 161.299 209.49 159.479 211.56 158.279C213.63 157.079 216.8 156.949 218.59 157.989L259.07 181.359C260.87 182.399 260.64 184.219 258.57 185.419C256.5 186.619 253.33 186.749 251.54 185.709Z" fill="#CEDCF9"/>
<path d="M222.89 202.25L182.41 178.88C180.61 177.84 180.84 176.021 182.91 174.821C184.98 173.621 188.15 173.49 189.94 174.53L230.42 197.9C232.22 198.94 231.99 200.761 229.92 201.961C227.85 203.161 224.68 203.29 222.89 202.25Z" fill="#CEDCF9"/>
<path d="M189.79 151.128C189.16 150.768 188.78 150.268 188.78 149.718V145.728C188.78 144.628 190.33 143.738 192.23 143.738C194.14 143.738 195.69 144.628 195.68 145.728V147.718H208.82C210.73 147.718 212.27 148.608 212.27 149.708C212.27 150.808 210.72 151.698 208.82 151.698H192.23C191.28 151.698 190.41 151.478 189.79 151.118V151.128Z" fill="#6E92DB"/>
<path d="M218.81 134.37C218.19 134.01 217.8 133.51 217.8 132.96V128.97C217.8 127.87 219.35 126.98 221.25 126.98C223.16 126.98 224.71 127.87 224.7 128.97V130.96H237.84C239.75 130.96 241.29 131.85 241.29 132.95C241.29 134.05 239.74 134.94 237.84 134.94H221.25C220.3 134.94 219.43 134.72 218.81 134.36V134.37Z" fill="#6E92DB"/>
<path d="M247.09 118.048C246.44 117.678 246.08 117.168 246.08 116.638V112.648C246.08 111.548 247.63 110.658 249.53 110.658C251.44 110.658 252.98 111.548 252.98 112.648V114.638H266.12C268.03 114.638 269.57 115.528 269.57 116.628C269.57 117.728 268.02 118.618 266.12 118.618H249.53C248.61 118.618 247.74 118.408 247.09 118.038V118.048Z" fill="#6E92DB"/>
<path d="M161.51 167.458C160.89 167.098 160.5 166.598 160.5 166.048V162.058C160.5 160.958 162.05 160.068 163.95 160.068C165.86 160.068 167.41 160.958 167.4 162.058V164.048H180.54C182.45 164.048 183.99 164.938 183.99 166.038C183.99 167.138 182.44 168.028 180.54 168.028H163.95C163 168.028 162.13 167.808 161.51 167.448V167.458Z" fill="#6E92DB"/>
<path d="M259.14 60.3413C258.55 58.2513 258.11 55.7213 256.23 54.6313C253.04 52.7913 247.98 54.9212 244.03 54.0312C240.33 53.1912 236.83 49.0312 232.91 49.0312C228.99 49.0312 225.49 53.2013 221.79 54.0312C217.84 54.9212 212.78 52.7913 209.59 54.6313C207.71 55.7213 207.27 58.2413 206.68 60.3413H199.37V69.1913C199.37 71.8013 203.71 73.2313 205.64 75.6413C207.16 77.5513 206.85 82.1712 209.58 83.7412C212.77 85.5812 217.83 83.4512 221.78 84.3412C225.48 85.1812 228.98 89.3412 232.9 89.3412C236.82 89.3412 240.32 85.1712 244.02 84.3412C247.97 83.4512 253.03 85.5812 256.22 83.7412C258.95 82.1712 258.64 77.5513 260.16 75.6413C262.09 73.2213 266.43 71.8013 266.43 69.1913V60.3413H259.12H259.14Z" fill="#004DBC"/>
<path d="M205.75 85.4414C205.18 82.6914 204.6 79.9414 204.03 77.1914L189.46 76.0414C199.05 70.5114 208.63 64.9714 218.22 59.4414L234.52 68.8514L205.76 85.4514L205.75 85.4414Z" fill="#FFC97C"/>
<path d="M256.24 74.8914C253.05 76.7314 247.99 74.6014 244.04 75.4914C240.34 76.3214 236.84 80.4914 232.92 80.4914C229 80.4914 225.5 76.3214 221.8 75.4914C217.85 74.6014 212.79 76.7314 209.6 74.8914C206.87 73.3214 207.18 68.7014 205.66 66.7914C203.73 64.3714 199.39 62.9514 199.39 60.3414C199.39 57.7314 203.73 56.3014 205.66 53.8914C207.18 51.9814 206.87 47.3614 209.6 45.7914C212.79 43.9514 217.85 46.0814 221.8 45.1914C225.5 44.3614 229 40.1914 232.92 40.1914C236.84 40.1914 240.34 44.3614 244.04 45.1914C247.99 46.0814 253.05 43.9514 256.24 45.7914C258.97 47.3614 258.66 51.9814 260.18 53.8914C262.11 56.3114 266.45 57.7314 266.45 60.3414C266.45 62.9514 262.11 64.3814 260.18 66.7914C258.66 68.7014 258.97 73.3214 256.24 74.8914Z" fill="#3E64D6"/>
<path d="M232.92 73.43C245.446 73.43 255.6 67.5694 255.6 60.34C255.6 53.1106 245.446 47.25 232.92 47.25C220.394 47.25 210.24 53.1106 210.24 60.34C210.24 67.5694 220.394 73.43 232.92 73.43Z" fill="#004DBC"/>
<path d="M189.45 76.0312V84.8713L204.02 86.0312V77.1813L189.45 76.0312Z" fill="#FF926C"/>
<path d="M204.02 77.1816V86.0316L205.75 94.2816V85.4416L204.02 77.1816Z" fill="#FF9672"/>
<path d="M229.09 53.4917L223.37 56.7917L221.67 55.8117L227.39 52.5117L229.09 53.4917Z" fill="white"/>
<path d="M227.69 59.283L228.47 57.953L227.57 57.433L226.03 58.323L224.33 57.343L230.05 54.043L232.72 55.583C234.25 56.463 234.4 57.403 233.1 58.153C232.25 58.643 231.29 58.803 230.32 58.643L229.61 60.393L227.69 59.283ZM228.88 56.683L229.85 57.243C230.36 57.533 230.93 57.543 231.44 57.243C231.94 56.953 231.92 56.623 231.42 56.333L230.45 55.773L228.88 56.673V56.683Z" fill="white"/>
<path d="M235.02 62.4508L232.71 61.1208L231.46 61.4508L229.71 60.4408L237.86 58.5508L239.61 59.5608L236.25 64.2208L234.44 63.1808L235.02 62.4608V62.4508ZM235.81 61.4808L236.99 60.0108L234.42 60.6808L235.81 61.4808Z" fill="white"/>
<path d="M243.33 63.1613C243.04 63.0013 242.76 62.9413 242.55 63.0713C241.71 63.5613 245.19 64.9913 243.13 66.1813C241.92 66.8813 240.26 66.5913 238.98 65.8513C238.01 65.2913 237.29 64.4813 237.14 63.7413L239.06 63.3613C239.15 63.9913 239.73 64.7513 240.32 65.0913C240.68 65.3013 241.03 65.3613 241.29 65.2113C242.15 64.7113 238.62 63.3013 240.64 62.1413C241.74 61.5013 243.38 61.6413 244.81 62.4613C245.68 62.9613 246.32 63.6313 246.54 64.2213L244.61 64.6113C244.36 64.0813 243.83 63.4213 243.35 63.1513L243.33 63.1613Z" fill="white"/>
<path d="M222.58 75.7227V84.5627L205.75 94.2827V85.4427L222.58 75.7227Z" fill="#FF926C"/>
<path d="M393.33 149.941V194.641C393.33 194.641 393.33 194.701 393.33 194.731V194.781C393.3 195.261 392.94 195.751 392.26 196.151L384.45 200.651C383.77 201.041 382.92 201.251 382.09 201.271C381.32 201.291 380.58 201.141 380.04 200.831L371.61 195.961C371.07 195.651 370.82 195.221 370.86 194.781V149.981H375.4L379.74 147.481C381.04 146.731 383.02 146.651 384.14 147.291L388.75 149.951H393.33V149.941Z" fill="#FF926C"/>
<path d="M393.33 149.961V194.631C393.33 194.631 393.33 194.691 393.33 194.721V194.771C393.3 195.251 392.94 195.741 392.26 196.141L384.45 200.641C383.77 201.031 382.92 201.241 382.09 201.261V149.961H393.32H393.33Z" fill="#FFC97C"/>
<path d="M380.05 156.02L371.61 151.15C370.49 150.5 370.63 149.36 371.93 148.61L379.73 144.1C381.03 143.35 383.01 143.27 384.13 143.92L392.57 148.79C393.69 149.44 393.55 150.58 392.25 151.33L384.45 155.84C383.15 156.59 381.17 156.67 380.05 156.02Z" fill="#F9D29B"/>
<path d="M381.96 152.91C381.85 152.91 381.77 152.9 381.73 152.89L376.66 149.96L381.51 147.16C381.61 147.1 381.91 147.01 382.23 147.01C382.34 147.01 382.42 147.01 382.47 147.03L387.54 149.96L382.69 152.76C382.61 152.81 382.32 152.91 381.97 152.91H381.96Z" fill="#FF926C"/>
<path d="M363.88 167.451V194.641C363.88 194.641 363.88 194.701 363.88 194.731V194.781C363.85 195.261 363.49 195.751 362.81 196.151L355 200.651C354.33 201.041 353.47 201.251 352.64 201.271C351.87 201.291 351.13 201.141 350.59 200.831L342.16 195.961C341.62 195.651 341.37 195.221 341.41 194.781V167.491H345.95L350.29 164.981C351.59 164.231 353.57 164.151 354.69 164.801L358.41 166.951L359.3 167.461H363.87L363.88 167.451Z" fill="#FF926C"/>
<path d="M363.88 167.449V194.639C363.88 194.639 363.88 194.699 363.88 194.729V194.779C363.85 195.259 363.49 195.749 362.81 196.149L355 200.649C354.33 201.039 353.47 201.249 352.64 201.269V167.479L358.41 166.949L359.3 167.459H363.87L363.88 167.449Z" fill="#FFC97C"/>
<path d="M350.61 173.52L342.17 168.65C341.05 168 341.19 166.86 342.49 166.11L350.29 161.6C351.59 160.85 353.57 160.77 354.69 161.42L363.13 166.29C364.25 166.94 364.11 168.08 362.81 168.83L355.01 173.34C353.71 174.09 351.73 174.17 350.61 173.52Z" fill="#F9D29B"/>
<path d="M352.52 170.42C352.41 170.42 352.33 170.42 352.28 170.4L347.21 167.47L352.06 164.67C352.17 164.61 352.46 164.52 352.78 164.52C352.89 164.52 352.97 164.52 353.02 164.54L358.09 167.47L353.24 170.27C353.14 170.33 352.84 170.42 352.52 170.42Z" fill="#FF926C"/>
<path d="M170.25 86.13L179.14 81L187.86 86.04L192.22 97.27L187.86 103.47L178.97 108.6L183.33 102.4L178.97 91.17L170.25 86.13Z" fill="#F9D29B"/>
<path d="M192.22 97.2691L183.33 102.399L178.97 91.1691L187.86 86.0391L192.22 97.2691Z" fill="#FFC97C"/>
<path d="M187.86 103.47L178.97 108.6L183.33 102.4L192.22 97.2695L187.86 103.47Z" fill="#FF926C"/>
<path d="M108.48 121.801L170.25 86.1309L178.97 91.1709L183.33 102.401L178.97 108.601L117.2 144.261L121.56 138.071L117.2 126.841L108.48 121.801Z" fill="#6E92DB"/>
<path d="M121.56 138.07L183.33 102.4L178.97 91.1699L117.2 126.84L121.56 138.07Z" fill="#3E64D6"/>
<path d="M117.2 144.26L178.97 108.6L183.33 102.4L121.56 138.07L117.2 144.26Z" fill="#004DBC"/>
<path d="M96.94 137.881L108.48 121.801L117.2 126.841L121.56 138.071L117.2 144.261L99.68 144.951L101.06 143.011L99.68 139.471L96.94 137.881Z" fill="white"/>
<path d="M101.06 143.01L121.56 138.07L117.2 126.84L99.68 139.47L101.06 143.01Z" fill="white"/>
<path d="M99.68 144.95L117.2 144.26L121.56 138.07L101.06 143.01L99.68 144.95Z" fill="#ACCDFA"/>
<path d="M91.22 144.061L90.76 144.711L91.22 145.901L92.15 146.431L99.68 144.951L101.06 143.011L99.68 139.471L96.94 137.881L91.22 144.061Z" fill="#004DBC"/>
<path d="M80.53 159.701L91.27 146.461L70.1 139.871C67.12 144.081 64.14 148.281 61.16 152.491C67.61 154.891 74.07 157.291 80.52 159.701H80.53Z" fill="white"/>
<path d="M81.32 159.251L82.17 157.721L83.8 154.791C83.8 154.791 83.89 154.741 83.94 154.721C84.03 154.681 84.11 154.631 84.2 154.581C85.08 154.091 85.87 153.451 86.69 152.761L87.87 151.621C88.06 151.731 88.25 151.851 88.47 151.961C89.12 152.471 88.76 152.991 88.63 153.471C88.6 153.641 88.69 153.791 88.78 153.971C88.86 154.131 88.93 154.311 88.94 154.551C88.94 154.761 88.82 155.001 88.73 155.221C88.68 155.341 88.64 155.451 88.63 155.561C88.63 155.641 88.65 155.711 88.69 155.791C88.73 155.891 88.77 156.011 88.75 156.241C88.75 156.281 88.73 156.341 88.7 156.411C88.6 156.641 88.39 156.971 88.41 157.121C88.41 157.171 88.41 157.231 88.42 157.281C88.44 157.721 88.31 158.051 88.02 158.361C86.8 159.881 84.92 161.151 83.18 162.581L81.61 160.731L80.96 159.961L81.34 159.271L81.32 159.251Z" fill="#FFB799"/>
<path d="M82.31 161.041L81.78 160.321L81.32 159.701C81.32 159.551 81.32 159.401 81.32 159.251C81.32 158.061 81.21 156.831 80.99 155.641C80.95 155.451 80.88 154.981 81 154.551C81.26 153.631 81.09 152.921 80.88 152.171C80.75 151.861 80.86 151.251 81.42 151.131C81.47 151.121 81.52 151.121 81.56 151.121C82.03 151.131 82.31 151.731 82.5 152.461C82.57 152.721 82.62 152.991 82.66 153.261C82.97 154.001 83.54 154.381 84.19 154.581C84.37 154.641 84.57 154.681 84.76 154.711C84.98 154.751 85.2 154.771 85.41 154.791L83.4 158.831L82.3 161.031L82.31 161.041Z" fill="#FFB799"/>
<path d="M88.22 158.05L90 153.87L90.45 150.49C90.45 149.86 90.04 149.77 89.5 149.83C88.76 150.23 88.23 150.83 87.86 151.61L85.99 154.32L87.08 158.17L88.22 158.04V158.05Z" fill="#FFB799"/>
<path d="M72.7001 257.27C68.9501 259.51 65.7801 261.14 62.8701 262.13C61.5001 262.55 60.4001 262.65 59.5701 262.53C58.3901 262.36 57.7201 261.7 57.5401 260.77C57.2001 258.42 57.5401 256.58 58.0901 254.22V249.25L61.5301 248.85L65.7701 248.34L65.6501 251.56L65.6101 252.46L68.6501 252.66L70.2101 252.5C71.2201 252.39 72.2501 252.75 72.8801 253.55C73.9701 254.92 73.5001 256.73 72.7101 257.27H72.7001Z" fill="#004DBC"/>
<path d="M56.63 248.16C52.88 250.4 49.71 252.03 46.8 253.02C45.43 253.44 44.33 253.54 43.5 253.42C42.32 253.25 41.65 252.59 41.47 251.66C41.13 249.31 41.47 247.47 42.02 245.11V240.14L45.46 239.74L49.7 239.23L49.58 242.45L49.54 243.35L52.58 243.55L54.14 243.39C55.15 243.28 56.18 243.64 56.81 244.44C57.9 245.81 57.43 247.62 56.64 248.16H56.63Z" fill="#004DBC"/>
<path d="M42.48 175.762L43.7 206.292C42.27 217.222 39.86 227.252 41.55 244.252C41.96 247.372 50.95 246.562 51.92 242.962C52.7 233.212 55.32 220.782 55.56 206.732C55.14 200.252 56.23 187.192 55.21 182.462C55.21 182.462 48.12 182.282 42.48 175.762Z" fill="#3E64D6"/>
<path d="M51.15 194.84L56.46 218.16C55.03 229.09 55.71 236.51 57.4 253.5C57.81 256.62 67.79 255.91 67.79 252.02C67.89 242.67 68.91 229.82 69.15 215.77C68.73 209.29 67.06 184.81 66.04 180.08C65.09 172 42.3 167.69 42.11 175.66C41.65 185.46 43.54 190.62 51.15 194.83V194.84Z" fill="#3E64D6"/>
<path d="M40.96 178.49C41.07 174.61 41.88 148.3 45.07 139.06C46.48 134.98 48.37 134.16 49.01 133.94C51.56 133.06 54.26 134.85 55.1 135.45C59.55 137.57 63.11 138.43 66.08 140C66.44 140.2 66.8 140.39 67.15 140.62C67.66 142.19 67.95 145.98 68.2 149.72C68.27 150.94 68.34 152.15 68.41 153.27C68.45 153.83 68.49 154.38 68.52 154.9C68.52 155.06 68.54 155.18 68.54 155.22C68.54 155.36 68.64 167.29 68.78 185.83C65.8 186.39 59.97 187.08 53.12 185.06C47.26 183.33 43.19 180.38 40.96 178.49Z" fill="#CEDCF9"/>
<path d="M49.96 134.26C47.57 136.42 47.55 138.59 51.89 140.79C55.84 141.89 59.06 141.59 62.43 138.42L59.53 136.99L49.96 134.27V134.26Z" fill="#CEDCF9"/>
<path d="M49.96 131.601V135.351C50.06 136.741 51.87 138.261 54.25 138.481C56.57 138.671 58.62 137.771 59.52 136.971L59.54 135.241L60.21 134.971C61.63 134.281 62 133.611 62.2 129.901C62.33 127.601 62.3 126.351 62.52 125.101C62.65 124.351 62.55 123.721 62.52 123.061C62.39 120.481 60.03 116.201 55.07 116.691C50.28 117.161 47.58 119.941 47.58 124.381C47.62 127.281 48.21 129.761 49.94 131.591L49.96 131.601Z" fill="#FFB799"/>
<path d="M49.96 133.27C51.97 134.62 54.06 135.12 56.25 134.55C58.03 133.83 58.1 130.39 58.23 127.03L59.22 126.51C59.15 126.37 58.51 125.01 59.23 123.66C59.82 122.56 61.07 121.92 62.39 122.06C62.08 119.69 61.1 118.47 60.48 117.88C57.07 114.62 48.83 115.32 46.06 120.63C43.99 124.59 45.44 130.22 49.96 133.27Z" fill="#004DBC"/>
<path d="M58.32 126.44C57.89 124.74 55.71 125.79 56.51 129.05C56.84 130.34 57.45 131.29 58.35 130.09C58.35 129.87 58.35 126.56 58.32 126.44Z" fill="#FFB799"/>
<path d="M83.63 165.58C82.8 166.37 80.26 168.6 76.34 168.99C70.6 169.56 66.7 165.71 66.17 165.17C63.6 160.7 61.86 156.8 60.68 153.85C59.67 151.32 58.91 149.05 59.35 146.29C59.54 145.12 59.87 143.23 61.47 141.82C63.6 139.95 66.39 140.3 66.92 140.37C68.82 145.66 70.72 150.95 72.62 156.24C75.39 157.47 78.17 158.69 80.94 159.92C81.35 160.31 81.8 160.81 82.22 161.45C83.26 163.04 83.55 164.62 83.63 165.57V165.58Z" fill="#CEDCF9"/>
<path d="M399.15 62.6005L293.12 1.0305C290.6 -0.419499 288.33 -0.279498 286.74 1.1105L276.27 6.8505L284.44 21.2805V47.2705C284.44 53.6405 288.35 61.1105 293.13 63.8705L385.06 117.301L393.51 132.221L404.31 126.151C406.46 125.261 407.87 122.691 407.87 118.871V79.2105C407.87 72.8405 403.96 65.3605 399.18 62.6105L399.15 62.6005Z" fill="#004DBC"/>
<path d="M396.75 85.3992V125.049C396.75 131.429 392.84 134.389 388.06 131.629L363.65 117.449V126.599L355.96 112.989L282.03 70.0592C277.25 67.2892 273.34 59.8292 273.34 53.4492V13.7992C273.34 7.42919 277.25 4.46919 282.03 7.22919L388.06 68.7992C392.84 71.5592 396.75 79.0292 396.75 85.4092V85.3992Z" fill="#3E64D6"/>
<path d="M363.65 117.449V126.599C366.28 125.079 368.92 123.559 371.55 122.039C368.92 120.509 366.28 118.979 363.65 117.449Z" fill="#004DBC"/>
<path d="M363.47 71.0201L366.84 80.8501C366.96 81.2001 367.19 81.5201 367.45 81.7201L374.99 87.3401C375.66 87.8401 375.92 88.9401 375.44 89.2001L369.99 92.1901C369.8 92.3001 369.71 92.5601 369.76 92.8901L371.05 102.3C371.16 103.13 370.47 103.32 369.87 102.61L363.13 94.6301C362.89 94.3501 362.61 94.1901 362.37 94.1901L355.63 94.3901C355.03 94.4101 354.33 93.4201 354.45 92.7201L355.74 84.8001C355.79 84.5201 355.7 84.1601 355.51 83.8301L350.06 74.5401C349.58 73.7201 349.84 72.9201 350.51 73.2001L358.05 76.2901C358.32 76.4001 358.54 76.3401 358.66 76.1301L362.03 70.1901C362.33 69.6601 363.19 70.1601 363.49 71.0301L363.47 71.0201Z" fill="#FFC97C"/>
<path d="M333.23 54.3092L336.6 64.1392C336.72 64.4892 336.95 64.8092 337.21 65.0092L344.75 70.6292C345.42 71.1292 345.68 72.2292 345.2 72.4892L339.75 75.4792C339.56 75.5892 339.47 75.8492 339.52 76.1792L340.81 85.5892C340.92 86.4192 340.23 86.6092 339.63 85.8992L332.89 77.9192C332.65 77.6392 332.37 77.4792 332.13 77.4792L325.39 77.6792C324.79 77.6992 324.09 76.7092 324.21 76.0092L325.5 68.0892C325.55 67.8092 325.46 67.4492 325.27 67.1192L319.82 57.8292C319.34 57.0092 319.6 56.2092 320.27 56.4892L327.81 59.5792C328.08 59.6892 328.3 59.6292 328.42 59.4192L331.79 53.4792C332.09 52.9492 332.95 53.4492 333.25 54.3192L333.23 54.3092Z" fill="#FFC97C"/>
<path d="M302.99 37.61L306.36 47.44C306.48 47.79 306.71 48.11 306.97 48.31L314.51 53.93C315.18 54.43 315.44 55.53 314.96 55.79L309.51 58.78C309.32 58.89 309.23 59.15 309.28 59.48L310.57 68.89C310.68 69.72 309.99 69.91 309.39 69.2L302.65 61.22C302.41 60.94 302.13 60.78 301.89 60.78L295.15 60.98C294.55 61 293.85 60.01 293.97 59.31L295.26 51.39C295.31 51.11 295.22 50.75 295.03 50.42L289.58 41.13C289.1 40.31 289.36 39.51 290.03 39.79L297.57 42.88C297.84 42.99 298.06 42.93 298.18 42.72L301.55 36.78C301.85 36.25 302.71 36.75 303.01 37.62L302.99 37.61Z" fill="#FFC97C"/>
</svg>
